<?xml version="1.0" encoding="UTF-8"?>
<svg width="3185px" height="1067px" viewBox="0 0 3185 1067" version="1.1" xmlns="http://www.w3.org/2000/svg" xmlns:xlink="http://www.w3.org/1999/xlink">
    <!-- Generator: Sketch 47 (45396) - http://www.bohemiancoding.com/sketch -->
    <title>listme-title-black</title>
    <desc>Created with Sketch.</desc>
    <defs>
        <linearGradient x1="19.921354%" y1="16.3789838%" x2="116.240489%" y2="100%" id="linearGradient-1">
            <stop stop-color="#7A7A7A" offset="0%"></stop>
            <stop stop-color="#000000" stop-opacity="0.5" offset="100%"></stop>
        </linearGradient>
        <polygon id="path-2" points="818.353756 110.666664 145.716317 0.607999985 0.201504191 842.006646 672.838944 952.06531"></polygon>
        <polygon id="path-3" points="0 1066.66664 1096.62145 1066.66664 1096.62145 0 0 0"></polygon>
    </defs>
    <g id="Page-1" stroke="none" stroke-width="1" fill="none" fill-rule="evenodd">
        <g id="listme-purple-titre" transform="translate(0.000000, -1.000000)">
            <polygon id="square" fill-rule="nonzero" points="0 1 1096.62145 1 1096.62145 1067.66664 0 1067.66664"></polygon>
            <g id="g10" transform="translate(548.500000, 534.166700) scale(-1, 1) rotate(-180.000000) translate(-548.500000, -534.166700) translate(0.000000, 0.666700)">
                <g id="feuilles" transform="translate(105.453449, 53.695332)" fill-rule="nonzero">
                    <polygon id="path136" fill="#525252" points="825.985419 113.260397 144.761433 79.844398 100.584038 931.983043 781.805282 965.397709"></polygon>
                    <polygon id="path140" fill="#FFFFFF" points="818.653545 97.7213309 139.26503 38.735999 61.2787953 888.578644 740.664569 947.562643"></polygon>
                    <g id="path144">
                        <use fill="#525252" fill-rule="evenodd" xlink:href="#path-2"></use>
                        <use fill="url(#linearGradient-1)" fill-rule="evenodd" xlink:href="#path-2"></use>
                    </g>
                </g>
                <g id="dans-la-feuille">
                    <g id="g152-Clipped">
                        <mask id="mask-4" fill="white">
                            <use xlink:href="#path-3"></use>
                        </mask>
                        <g id="path154"></g>
                        <g id="g152" mask="url(#mask-4)">
                            <g transform="translate(236.801694, -281.333326)">
                                <g id="g158" transform="translate(27.776325, 680.311183)">
                                    <path d="M128.85302,73.3333315 C134.754214,39.2186657 111.104202,6.91199983 76.0328774,1.1733333 C40.9588111,-4.56666655 7.74488898,18.4359995 1.84506559,52.5519987 C-4.05475781,86.6666645 19.5938837,118.971997 54.6665792,124.711997 C89.7392747,130.450663 122.953197,107.449331 128.85302,73.3333315" id="path160" fill="#FFFFFF" fill-rule="nonzero"></path>
                                </g>
                                <g id="g162" transform="translate(52.382746, 709.109316)">
                                    <path d="M34.6401971,0.3333333 C31.403793,-0.19600002 27.9631432,0.581333294 25.2188481,2.74266657 L4.63389269,18.9733328 C-0.444835392,22.9773327 -1.22343662,30.2266659 2.89163537,35.1639991 C7.00807813,40.1053323 14.4609917,40.8613323 19.538349,36.8586657 L31.1556824,27.6986659 L58.4834889,58.8866652 C62.7205601,63.7253317 70.1912937,64.3039984 75.1672135,60.1786651 C80.1403918,56.0546652 80.7366797,48.7893321 76.496867,43.9533322 L41.679136,4.21866654 C39.8039133,2.07733326 37.2912794,0.767999956 34.6401971,0.3333333" id="path164" fill="#525252" fill-rule="nonzero"></path>
                                </g>
                                <g id="g174" transform="translate(0.022755, 840.792246)">
                                    <path d="M128.85302,73.3333315 C134.752844,39.2186657 111.104202,6.91199983 76.0328774,1.1733333 C40.9588111,-4.56399989 7.74351821,18.4373329 1.84369481,52.5519987 C-4.05612858,86.6679978 19.5938837,118.97333 54.6665792,124.71333 C89.7392747,130.451997 122.953197,107.449331 128.85302,73.3333315" id="path176" fill="#FFFFFF" fill-rule="nonzero"></path>
                                </g>
                                <g id="g178" transform="translate(24.628491, 869.592378)">
                                    <path d="M34.6401971,0.3333333 C31.4051638,-0.19600002 27.9631432,0.577333294 25.2202188,2.73999991 L4.63252192,18.9719995 C-0.444835392,22.9759994 -1.22343662,30.2253326 2.89300614,35.1639991 C7.00944891,40.103999 14.4609917,40.8613323 19.5397197,36.8573324 L31.1543117,27.6973326 L58.4834889,58.8839985 C62.7219308,63.722665 70.1912937,64.3013317 75.1658427,60.1786651 C80.1403918,56.0546652 80.7366797,48.7879988 76.496867,43.9506655 L41.6805068,4.21599987 C39.8039133,2.07599992 37.2912794,0.766666622 34.6401971,0.3333333" id="path180" fill="#525252" fill-rule="nonzero"></path>
                                </g>
                                <g id="g190" transform="translate(54.805576, 524.022120)">
                                    <path d="M128.85302,73.3333315 C134.752844,39.2186657 111.104202,6.91199983 76.0328774,1.17466664 C40.9588111,-4.56533322 7.74351821,18.4386662 1.84369481,52.5506654 C-4.05475781,86.6666645 19.5938837,118.97333 54.6665792,124.71333 C89.7392747,130.450663 122.953197,107.446664 128.85302,73.3333315" id="path192" fill="#FFFFFF" fill-rule="nonzero"></path>
                                </g>
                                <g id="g194" transform="translate(79.411998, 552.820253)">
                                    <path d="M34.6401971,0.3333333 C31.403793,-0.19600002 27.9617725,0.579999961 25.2188481,2.74399991 L4.63252192,18.9719995 C-0.444835392,22.9746661 -1.22343662,30.2266659 2.89163537,35.1653324 C7.00807813,40.1026656 14.4609917,40.8613323 19.538349,36.8599991 L31.1556824,27.6986659 L58.4834889,58.8866652 C62.7205601,63.7239984 70.1912937,64.302665 75.1658427,60.1813318 C80.1403918,56.0559986 80.7353089,48.7906654 76.4954962,43.9506655 L41.679136,4.21866654 C39.8025426,2.07866659 37.2912794,0.765333289 34.6401971,0.3333333" id="path196" fill="#525252" fill-rule="nonzero"></path>
                                </g>
                            </g>
                        </g>
                    </g>
                </g>
                <g id="text" transform="translate(194.667710, 292.361988)" fill-rule="nonzero" fill="#FFFFFF">
                    <polygon id="path168" points="566.130829 254.333332 246.430036 202.022667 243.443114 219.296 563.142536 271.605332"></polygon>
                    <polygon id="path172" points="480.672764 194.0404 254.219064 156.988401 251.232142 174.263067 477.6831 211.3164"></polygon>
                    <polygon id="path184" points="545.428672 415.966795 225.72925 363.657463 222.742328 380.930796 542.439008 433.241461"></polygon>
                    <polygon id="path188" points="346.744991 337.149063 233.517456 318.622397 230.530533 335.897063 343.755327 354.423729"></polygon>
                    <polygon id="path200" points="589.242537 97.4022693 269.541745 45.0916039 266.554822 62.3649368 586.252873 114.675602"></polygon>
                    <polygon id="path204" points="448.151633 28.0077377 277.33091 0.0570716902 274.342616 17.3304046 445.161969 45.2810706"></polygon>
                    <polygon id="path148" points="538.79562 542.269458 12.3405614 456.128127 0.613565766 523.932125 527.072737 610.072123"></polygon>
                </g>
            </g>
            <text id="ListMe" font-family="Rubik-Light, Rubik" font-size="688" font-weight="300" letter-spacing="0.3" fill="#414141">
                <tspan x="1031" y="764">ListMe</tspan>
            </text>
        </g>
    </g>
</svg>