<?xml version="1.0" encoding="UTF-8"?>
<svg width="1067px" height="1067px" viewBox="0 0 1067 1067" version="1.1" xmlns="http://www.w3.org/2000/svg" xmlns:xlink="http://www.w3.org/1999/xlink">
    <!-- Generator: Sketch 47 (45396) - http://www.bohemiancoding.com/sketch -->
    <title>listme</title>
    <desc>Created with Sketch.</desc>
    <defs>
        <polygon id="path-1" points="0 1066.66664 1066.66664 1066.66664 1066.66664 0 0 0"></polygon>
    </defs>
    <g id="Page-1" stroke="none" stroke-width="1" fill="none" fill-rule="evenodd">
        <g id="listme" transform="translate(0.000000, -1.000000)">
            <polygon id="square" fill-rule="nonzero" points="0 1 1066.66664 1 1066.66664 1067.66664 0 1067.66664"></polygon>
            <g id="g10" transform="translate(533.500000, 534.166700) scale(-1, 1) rotate(-180.000000) translate(-533.500000, -534.166700) translate(0.000000, 0.666700)">
                <g id="feuilles" transform="translate(102.572931, 53.695332)" fill-rule="nonzero">
                    <polygon id="path136" fill="#DCC083" points="803.42318 113.260397 140.807196 79.844398 97.8365309 931.983043 760.449848 965.397709"></polygon>
                    <polygon id="path140" fill="#F7EACE" points="796.29158 97.7213309 135.46093 38.735999 59.6049318 888.578644 720.432915 947.562643"></polygon>
                    <polygon id="path144" fill="#F9E2B1" points="795.99998 110.666664 141.735996 0.607999985 0.195999995 842.006646 654.459984 952.06531"></polygon>
                </g>
                <g id="dans-la-feuille">
                    <g id="g152-Clipped">
                        <mask id="mask-2" fill="white">
                            <use xlink:href="#path-1"></use>
                        </mask>
                        <g id="path154"></g>
                        <g id="g152" mask="url(#mask-2)">
                            <g transform="translate(189.333328, -281.333326)">
                                <g id="g158" transform="translate(68.017599, 680.311183)">
                                    <path d="M125.33333,73.3333315 C131.07333,39.2186657 108.069331,6.91199983 73.9559982,1.1733333 C39.839999,-4.56666655 7.53333315,18.4359995 1.79466662,52.5519987 C-3.9439999,86.6666645 19.0586662,118.971997 53.173332,124.711997 C87.2879978,130.450663 119.594664,107.449331 125.33333,73.3333315" id="path160" fill="#FB8A59" fill-rule="nonzero"></path>
                                </g>
                                <g id="g162" transform="translate(90.979199, 708.109316)">
                                    <path d="M34.6666658,1.3333333 C31.5186659,0.80399998 28.1719993,1.58133329 25.502666,3.74266657 L5.47999986,19.9733328 C0.539999987,23.9773327 -0.217333328,31.2266659 3.78533324,36.1639991 C7.78933314,41.1053323 15.0386663,41.8613323 19.9773328,37.8586657 L31.2773326,28.6986659 L57.8586652,59.8866652 C61.9799985,64.7253317 69.2466649,65.3039984 74.0866648,61.1786651 C78.923998,57.0546652 79.503998,49.7893321 75.3799981,44.9533322 L41.5133323,5.21866654 C39.6893323,3.07733326 37.2453324,1.76799996 34.6666658,1.3333333" id="path164" fill="#FFFFFF" fill-rule="nonzero"></path>
                                </g>
                                <g id="text" transform="translate(0.016928, 501.695314)">
                                    <polygon id="path168" fill="#442B66" fill-rule="nonzero" points="550.666659 326.333332 239.698667 274.022667 236.793333 291.296 547.759992 343.605332"></polygon>
                                    <polygon id="path172" fill="#442B66" fill-rule="nonzero" points="467.542928 266.0404 247.274933 228.988401 244.3696 246.263067 464.634928 283.3164"></polygon>
                                    <polygon id="path184" fill="#442B66" fill-rule="nonzero" points="530.529993 487.966795 219.563334 435.657463 216.658 452.930796 527.621993 505.241461"></polygon>
                                    <polygon id="path188" fill="#442B66" fill-rule="nonzero" points="337.273464 409.149063 227.1388 390.622397 224.233467 407.897063 334.365464 426.423729"></polygon>
                                    <polygon id="path200" fill="#442B66" fill-rule="nonzero" points="573.147058 169.402269 262.179066 117.091604 259.273733 134.364937 570.239058 186.675602"></polygon>
                                    <polygon id="path204" fill="#442B66" fill-rule="nonzero" points="435.910128 100.007738 269.755466 72.0570717 266.848799 89.3304046 433.002128 117.281071"></polygon>
                                    <polygon id="path208" fill="#442B66" fill-rule="nonzero" points="621.080657 22.2200063 492.10066 0.524006812 489.19666 17.7973397 618.172657 39.4933392"></polygon>
                                    <polygon id="path148" fill="#442B66" fill-rule="nonzero" points="524.078126 614.269458 12.0034723 528.128127 0.596805885 595.932125 512.67546 682.072123"></polygon>
                                </g>
                                <g id="g174" transform="translate(41.022133, 840.792246)">
                                    <path d="M125.33333,73.3333315 C131.071997,39.2186657 108.069331,6.91199983 73.9559982,1.1733333 C39.839999,-4.56399989 7.53199981,18.4373329 1.79333329,52.5519987 C-3.94533323,86.6679978 19.0586662,118.97333 53.173332,124.71333 C87.2879978,130.451997 119.594664,107.449331 125.33333,73.3333315" id="path176" fill="#FB8A59" fill-rule="nonzero"></path>
                                </g>
                                <g id="g178" transform="translate(63.983066, 868.592378)">
                                    <path d="M34.6666658,1.3333333 C31.5199992,0.80399998 28.1719993,1.57733329 25.5039994,3.73999991 L5.47866653,19.9719995 C0.539999987,23.9759994 -0.217333328,31.2253326 3.78666657,36.1639991 C7.79066647,41.103999 15.0386663,41.8613323 19.9786662,37.8573324 L31.2759992,28.6973326 L57.8586652,59.8839985 C61.9813318,64.722665 69.2466649,65.3013317 74.0853315,61.1786651 C78.923998,57.0546652 79.503998,49.7879988 75.3799981,44.9506655 L41.5146656,5.21599987 C39.6893323,3.07599992 37.2453324,1.76666662 34.6666658,1.3333333" id="path180" fill="#FFFFFF" fill-rule="nonzero"></path>
                                </g>
                                <g id="g190" transform="translate(94.308532, 524.022120)">
                                    <path d="M125.33333,73.3333315 C131.071997,39.2186657 108.069331,6.91199983 73.9559982,1.17466664 C39.839999,-4.56533322 7.53199981,18.4386662 1.79333329,52.5506654 C-3.9439999,86.6666645 19.0586662,118.97333 53.173332,124.71333 C87.2879978,130.450663 119.594664,107.446664 125.33333,73.3333315" id="path192" fill="#FB8A59" fill-rule="nonzero"></path>
                                </g>
                                <g id="g194" transform="translate(117.270131, 551.820253)">
                                    <path d="M34.6666658,1.3333333 C31.5186659,0.80399998 28.170666,1.57999996 25.502666,3.74399991 L5.47866653,19.9719995 C0.539999986,23.9746661 -0.217333328,31.2266659 3.78533324,36.1653324 C7.78933314,41.1026656 15.0386663,41.8613323 19.9773328,37.8599991 L31.2773326,28.6986659 L57.8586652,59.8866652 C61.9799985,64.7239984 69.2466649,65.302665 74.0853315,61.1813318 C78.923998,57.0559986 79.5026647,49.7906654 75.3786648,44.9506655 L41.5133323,5.21866654 C39.687999,3.07866659 37.2453324,1.76533329 34.6666658,1.3333333" id="path196" fill="#FFFFFF" fill-rule="nonzero"></path>
                                </g>
                            </g>
                        </g>
                    </g>
                </g>
            </g>
        </g>
    </g>
</svg>