<?xml version="1.0" encoding="UTF-8"?>
<svg width="3543px" height="1067px" viewBox="0 0 3543 1067" version="1.1" xmlns="http://www.w3.org/2000/svg" xmlns:xlink="http://www.w3.org/1999/xlink">
    <!-- Generator: Sketch 47 (45396) - http://www.bohemiancoding.com/sketch -->
    <title>logo-with-title</title>
    <desc>Created with Sketch.</desc>
    <defs>
        <polygon id="path-1" points="0 1066.66664 1066.66664 1066.66664 1066.66664 0 0 0"></polygon>
    </defs>
    <g id="Page-1" stroke="none" stroke-width="1" fill="none" fill-rule="evenodd">
        <g id="listme-blanc-avec-titre" transform="translate(0.000000, -1.000000)">
            <text id="LISTME" font-family="Rubik-Light, Rubik" font-size="688" font-weight="300" letter-spacing="0.3" fill="#FFFFFF">
                <tspan x="1129" y="770">LISTME</tspan>
            </text>
            <g id="g10" transform="translate(534.500000, 534.166700) scale(-1, 1) rotate(-180.000000) translate(-534.500000, -534.166700) translate(1.000000, 0.666700)">
                <g id="feuilles" transform="translate(102.572931, 53.695332)" fill-rule="nonzero" fill="#FFFFFF">
                    <path d="M99.8441617,892.170306 L97.8365309,931.983043 L760.449848,965.397709 L803.42318,113.260397 L794.942705,112.832723 L720.432915,947.562643 L99.8441617,892.170306 Z" id="Combined-Shape"></path>
                    <path d="M795.99998,110.666664 L654.459984,952.06531 L0.195999995,842.006646 L141.735996,0.607999985 L795.99998,110.666664 Z M637.443984,492.999988 L326.475992,440.689322 L323.570659,457.962655 L634.537317,510.271987 L637.443984,492.999988 Z M554.320253,432.707056 L334.052258,395.655057 L331.146925,412.929723 L551.412253,449.983055 L554.320253,432.707056 Z M617.307318,654.63345 L306.340659,602.324118 L303.435326,619.597451 L614.399318,671.908117 L617.307318,654.63345 Z M424.050789,575.815719 L313.916125,557.289053 L311.010792,574.563719 L421.142789,593.090385 L424.050789,575.815719 Z M659.924384,336.068925 L348.956391,283.75826 L346.051058,301.031592 L657.016384,353.342258 L659.924384,336.068925 Z M522.687454,266.674393 L356.532791,238.723727 L353.626124,255.99706 L519.779454,283.947726 L522.687454,266.674393 Z M610.855451,780.936114 L98.7807975,694.794783 L87.3741311,762.598781 L599.452785,848.738779 L610.855451,780.936114 Z M280.111326,418.615856 C285.851326,384.50119 262.847327,352.194525 228.733994,346.455858 C194.617995,340.715858 162.311329,363.718524 156.572663,397.834523 C150.833996,431.949189 173.836662,464.254522 207.951328,469.994522 C242.065994,475.733188 274.37266,452.731855 280.111326,418.615856 Z M253.11586,579.096919 C258.854527,544.982253 235.851861,512.675587 201.738528,506.936921 C167.622529,501.199587 135.31453,524.20092 129.575863,558.315586 C123.837197,592.431585 146.841196,624.736918 180.955862,630.476918 C215.070528,636.215584 247.377194,613.212918 253.11586,579.096919 Z M306.402259,262.326793 C312.140926,228.212128 289.138259,195.905462 255.024927,190.168129 C220.908928,184.428129 188.600929,207.432128 182.862262,241.544127 C177.124929,275.660126 200.127595,307.966792 234.242261,313.706792 C268.356927,319.444125 300.663592,296.440126 306.402259,262.326793 Z" id="Combined-Shape"></path>
                </g>
                <g id="dans-la-feuille">
                    <g id="g152-Clipped">
                        <mask id="mask-2" fill="white">
                            <use xlink:href="#path-1"></use>
                        </mask>
                        <g id="path154"></g>
                        <g id="g152" mask="url(#mask-2)">
                            <g transform="translate(189.333328, -281.333326)">
                                <g id="g158" transform="translate(68.017599, 680.311183)"></g>
                                <g id="g162" transform="translate(91.979199, 709.109316)">
                                    <path d="M33.6666658,0.3333333 C30.5186659,-0.19600002 27.1719993,0.581333294 24.502666,2.74266657 L4.47999986,18.9733328 C-0.460000014,22.9773327 -1.21733333,30.2266659 2.78533324,35.1639991 C6.78933314,40.1053323 14.0386663,40.8613323 18.9773328,36.8586657 L30.2773326,27.6986659 L56.8586652,58.8866652 C60.9799985,63.7253317 68.2466649,64.3039984 73.0866648,60.1786651 C77.923998,56.0546652 78.503998,48.7893321 74.3799981,43.9533322 L40.5133323,4.21866654 C38.6893323,2.07733326 36.2453324,0.767999956 33.6666658,0.3333333" id="path164" fill="#FFFFFF" fill-rule="nonzero"></path>
                                </g>
                                <g id="g174" transform="translate(41.022133, 840.792246)"></g>
                                <g id="g178" transform="translate(64.983066, 869.592378)">
                                    <path d="M33.6666658,0.3333333 C30.5199992,-0.19600002 27.1719993,0.577333294 24.5039994,2.73999991 L4.47866653,18.9719995 C-0.460000014,22.9759994 -1.21733333,30.2253326 2.78666657,35.1639991 C6.79066647,40.103999 14.0386663,40.8613323 18.9786662,36.8573324 L30.2759992,27.6973326 L56.8586652,58.8839985 C60.9813318,63.722665 68.2466649,64.3013317 73.0853315,60.1786651 C77.923998,56.0546652 78.503998,48.7879988 74.3799981,43.9506655 L40.5146656,4.21599987 C38.6893323,2.07599992 36.2453324,0.766666622 33.6666658,0.3333333" id="path180" fill="#FFFFFF" fill-rule="nonzero"></path>
                                </g>
                                <g id="g190" transform="translate(94.308532, 524.022120)"></g>
                                <g id="g194" transform="translate(118.270131, 552.820253)">
                                    <path d="M33.6666658,0.3333333 C30.5186659,-0.19600002 27.170666,0.579999961 24.502666,2.74399991 L4.47866653,18.9719995 C-0.460000014,22.9746661 -1.21733333,30.2266659 2.78533324,35.1653324 C6.78933314,40.1026656 14.0386663,40.8613323 18.9773328,36.8599991 L30.2773326,27.6986659 L56.8586652,58.8866652 C60.9799985,63.7239984 68.2466649,64.302665 73.0853315,60.1813318 C77.923998,56.0559986 78.5026647,48.7906654 74.3786648,43.9506655 L40.5133323,4.21866654 C38.687999,2.07866659 36.2453324,0.765333289 33.6666658,0.3333333" id="path196" fill="#FFFFFF" fill-rule="nonzero"></path>
                                </g>
                                <g id="text" transform="translate(0.016928, 573.695314)"></g>
                            </g>
                        </g>
                    </g>
                </g>
            </g>
        </g>
    </g>
</svg>